<mxfile host="app.diagrams.net" modified="2023-05-01T16:06:57.397Z" agent="Mozilla/5.0 (Windows NT 10.0; Win64; x64) AppleWebKit/537.36 (KHTML, like Gecko) Chrome/112.0.0.0 Safari/537.36" etag="14QYp7ZekD2cRVlhJAnm" version="21.2.3" type="device">
  <diagram name="PÃ¡gina-1" id="eAzFou74vSm_Pbydygq0">
    <mxGraphModel dx="1028" dy="560" grid="1" gridSize="10" guides="1" tooltips="1" connect="1" arrows="1" fold="1" page="1" pageScale="1" pageWidth="827" pageHeight="1169" background="#ffffff" math="0" shadow="0">
      <root>
        <mxCell id="0" />
        <mxCell id="1" parent="0" />
        <mxCell id="8qd9BPg2neIUj7x8B0nQ-1" value="Actors:&lt;br&gt;&lt;ul&gt;&lt;li&gt;Passenger&lt;/li&gt;&lt;li&gt;Driver&lt;/li&gt;&lt;li&gt;System&lt;/li&gt;&lt;/ul&gt;&lt;div&gt;Use cases:&lt;/div&gt;&lt;div&gt;&lt;ul&gt;&lt;li&gt;Search for trip details&lt;/li&gt;&lt;li&gt;Request ride&lt;/li&gt;&lt;li&gt;Cancel ride&lt;/li&gt;&lt;li&gt;Book ride&lt;/li&gt;&lt;li&gt;Share trip details&lt;/li&gt;&lt;li&gt;Rate ride&lt;/li&gt;&lt;li&gt;Update payment information&lt;/li&gt;&lt;li&gt;Leave trip&lt;/li&gt;&lt;/ul&gt;&lt;/div&gt;" style="text;html=1;strokeColor=none;fillColor=none;align=left;verticalAlign=middle;whiteSpace=wrap;rounded=0;fontFamily=Coming Soon;fontSource=https%3A%2F%2Ffonts.googleapis.com%2Fcss%3Ffamily%3DComing%2BSoon;fontStyle=1" parent="1" vertex="1">
          <mxGeometry x="40" y="40" width="200" height="280" as="geometry" />
        </mxCell>
        <mxCell id="8qd9BPg2neIUj7x8B0nQ-2" value="&lt;h2&gt;&lt;font data-font-src=&quot;https://fonts.googleapis.com/css?family=Coming+Soon&quot; face=&quot;Coming Soon&quot;&gt;&lt;u&gt;Uber - Use-case Diagram&lt;/u&gt;&lt;/font&gt;&lt;/h2&gt;" style="text;html=1;strokeColor=none;fillColor=none;align=center;verticalAlign=middle;whiteSpace=wrap;rounded=0;" parent="1" vertex="1">
          <mxGeometry x="280" y="40" width="320" height="40" as="geometry" />
        </mxCell>
        <mxCell id="9MRlb0sJl3jCcLAnvzpH-31" style="rounded=0;orthogonalLoop=1;jettySize=auto;html=1;entryX=0;entryY=0.5;entryDx=0;entryDy=0;endArrow=none;endFill=0;exitX=1;exitY=0.3333333333333333;exitDx=0;exitDy=0;exitPerimeter=0;" edge="1" parent="1" source="9MRlb0sJl3jCcLAnvzpH-1" target="9MRlb0sJl3jCcLAnvzpH-6">
          <mxGeometry relative="1" as="geometry">
            <mxPoint x="290" y="430" as="targetPoint" />
          </mxGeometry>
        </mxCell>
        <mxCell id="9MRlb0sJl3jCcLAnvzpH-32" style="rounded=0;orthogonalLoop=1;jettySize=auto;html=1;entryX=0;entryY=0.5;entryDx=0;entryDy=0;endArrow=none;endFill=0;exitX=1;exitY=0.3333333333333333;exitDx=0;exitDy=0;exitPerimeter=0;" edge="1" parent="1" source="9MRlb0sJl3jCcLAnvzpH-1" target="9MRlb0sJl3jCcLAnvzpH-7">
          <mxGeometry relative="1" as="geometry" />
        </mxCell>
        <mxCell id="9MRlb0sJl3jCcLAnvzpH-34" style="rounded=0;orthogonalLoop=1;jettySize=auto;html=1;entryX=0;entryY=0.5;entryDx=0;entryDy=0;endArrow=none;endFill=0;exitX=1;exitY=0.3333333333333333;exitDx=0;exitDy=0;exitPerimeter=0;" edge="1" parent="1" source="9MRlb0sJl3jCcLAnvzpH-1" target="9MRlb0sJl3jCcLAnvzpH-9">
          <mxGeometry relative="1" as="geometry" />
        </mxCell>
        <mxCell id="9MRlb0sJl3jCcLAnvzpH-36" style="rounded=0;orthogonalLoop=1;jettySize=auto;html=1;entryX=0;entryY=0.5;entryDx=0;entryDy=0;endArrow=none;endFill=0;exitX=1;exitY=0.3333333333333333;exitDx=0;exitDy=0;exitPerimeter=0;" edge="1" parent="1" source="9MRlb0sJl3jCcLAnvzpH-1" target="9MRlb0sJl3jCcLAnvzpH-10">
          <mxGeometry relative="1" as="geometry" />
        </mxCell>
        <mxCell id="9MRlb0sJl3jCcLAnvzpH-37" style="rounded=0;orthogonalLoop=1;jettySize=auto;html=1;entryX=0;entryY=0.5;entryDx=0;entryDy=0;endArrow=none;endFill=0;exitX=1;exitY=0.3333333333333333;exitDx=0;exitDy=0;exitPerimeter=0;" edge="1" parent="1" source="9MRlb0sJl3jCcLAnvzpH-1" target="9MRlb0sJl3jCcLAnvzpH-11">
          <mxGeometry relative="1" as="geometry" />
        </mxCell>
        <mxCell id="9MRlb0sJl3jCcLAnvzpH-38" style="rounded=0;orthogonalLoop=1;jettySize=auto;html=1;entryX=0;entryY=0.5;entryDx=0;entryDy=0;endArrow=none;endFill=0;exitX=1;exitY=0.3333333333333333;exitDx=0;exitDy=0;exitPerimeter=0;" edge="1" parent="1" source="9MRlb0sJl3jCcLAnvzpH-1" target="9MRlb0sJl3jCcLAnvzpH-12">
          <mxGeometry relative="1" as="geometry" />
        </mxCell>
        <mxCell id="9MRlb0sJl3jCcLAnvzpH-39" style="rounded=0;orthogonalLoop=1;jettySize=auto;html=1;entryX=0;entryY=0.5;entryDx=0;entryDy=0;endArrow=none;endFill=0;exitX=1;exitY=0.3333333333333333;exitDx=0;exitDy=0;exitPerimeter=0;" edge="1" parent="1" source="9MRlb0sJl3jCcLAnvzpH-1" target="9MRlb0sJl3jCcLAnvzpH-13">
          <mxGeometry relative="1" as="geometry" />
        </mxCell>
        <mxCell id="9MRlb0sJl3jCcLAnvzpH-1" value="Passenger" style="shape=umlActor;verticalLabelPosition=bottom;verticalAlign=top;html=1;outlineConnect=0;" vertex="1" parent="1">
          <mxGeometry x="180" y="465" width="40" height="70" as="geometry" />
        </mxCell>
        <mxCell id="9MRlb0sJl3jCcLAnvzpH-45" style="rounded=0;orthogonalLoop=1;jettySize=auto;html=1;entryX=1;entryY=0.5;entryDx=0;entryDy=0;endArrow=none;endFill=0;exitX=0;exitY=0.3333333333333333;exitDx=0;exitDy=0;exitPerimeter=0;" edge="1" parent="1" source="9MRlb0sJl3jCcLAnvzpH-2" target="9MRlb0sJl3jCcLAnvzpH-9">
          <mxGeometry relative="1" as="geometry" />
        </mxCell>
        <mxCell id="9MRlb0sJl3jCcLAnvzpH-46" style="rounded=0;orthogonalLoop=1;jettySize=auto;html=1;entryX=1;entryY=0.5;entryDx=0;entryDy=0;endArrow=none;endFill=0;exitX=0;exitY=0.3333333333333333;exitDx=0;exitDy=0;exitPerimeter=0;" edge="1" parent="1" source="9MRlb0sJl3jCcLAnvzpH-2" target="9MRlb0sJl3jCcLAnvzpH-11">
          <mxGeometry relative="1" as="geometry" />
        </mxCell>
        <mxCell id="9MRlb0sJl3jCcLAnvzpH-2" value="Driver" style="shape=umlActor;verticalLabelPosition=bottom;verticalAlign=top;html=1;outlineConnect=0;" vertex="1" parent="1">
          <mxGeometry x="700" y="535" width="40" height="70" as="geometry" />
        </mxCell>
        <mxCell id="9MRlb0sJl3jCcLAnvzpH-42" style="rounded=0;orthogonalLoop=1;jettySize=auto;html=1;entryX=1;entryY=0.5;entryDx=0;entryDy=0;endArrow=none;endFill=0;exitX=0;exitY=0.3333333333333333;exitDx=0;exitDy=0;exitPerimeter=0;" edge="1" parent="1" source="9MRlb0sJl3jCcLAnvzpH-3" target="9MRlb0sJl3jCcLAnvzpH-6">
          <mxGeometry relative="1" as="geometry" />
        </mxCell>
        <mxCell id="9MRlb0sJl3jCcLAnvzpH-43" style="rounded=0;orthogonalLoop=1;jettySize=auto;html=1;entryX=1;entryY=0.5;entryDx=0;entryDy=0;endArrow=none;endFill=0;exitX=0;exitY=0.3333333333333333;exitDx=0;exitDy=0;exitPerimeter=0;" edge="1" parent="1" source="9MRlb0sJl3jCcLAnvzpH-3" target="9MRlb0sJl3jCcLAnvzpH-7">
          <mxGeometry relative="1" as="geometry" />
        </mxCell>
        <mxCell id="9MRlb0sJl3jCcLAnvzpH-44" style="rounded=0;orthogonalLoop=1;jettySize=auto;html=1;entryX=1;entryY=0.5;entryDx=0;entryDy=0;endArrow=none;endFill=0;exitX=0;exitY=0.3333333333333333;exitDx=0;exitDy=0;exitPerimeter=0;" edge="1" parent="1" source="9MRlb0sJl3jCcLAnvzpH-3" target="9MRlb0sJl3jCcLAnvzpH-9">
          <mxGeometry relative="1" as="geometry" />
        </mxCell>
        <mxCell id="9MRlb0sJl3jCcLAnvzpH-3" value="&amp;lt;&amp;lt;system&amp;gt;&amp;gt;&lt;br&gt;Navigation Engine" style="shape=umlActor;verticalLabelPosition=bottom;verticalAlign=top;html=1;outlineConnect=0;" vertex="1" parent="1">
          <mxGeometry x="700" y="180" width="40" height="70" as="geometry" />
        </mxCell>
        <mxCell id="9MRlb0sJl3jCcLAnvzpH-6" value="Search for trip details" style="ellipse;whiteSpace=wrap;html=1;" vertex="1" parent="1">
          <mxGeometry x="380" y="120" width="120" height="80" as="geometry" />
        </mxCell>
        <mxCell id="9MRlb0sJl3jCcLAnvzpH-7" value="Request ride" style="ellipse;whiteSpace=wrap;html=1;" vertex="1" parent="1">
          <mxGeometry x="380" y="220" width="120" height="80" as="geometry" />
        </mxCell>
        <mxCell id="9MRlb0sJl3jCcLAnvzpH-33" value="&amp;lt;&amp;lt;include&amp;gt;&amp;gt;" style="edgeStyle=orthogonalEdgeStyle;rounded=0;orthogonalLoop=1;jettySize=auto;html=1;exitX=1;exitY=0.5;exitDx=0;exitDy=0;entryX=1;entryY=0.5;entryDx=0;entryDy=0;dashed=1;dashPattern=8 8;endArrow=open;endFill=0;" edge="1" parent="1" source="9MRlb0sJl3jCcLAnvzpH-8" target="9MRlb0sJl3jCcLAnvzpH-7">
          <mxGeometry relative="1" as="geometry" />
        </mxCell>
        <mxCell id="9MRlb0sJl3jCcLAnvzpH-8" value="Cancel ride" style="ellipse;whiteSpace=wrap;html=1;" vertex="1" parent="1">
          <mxGeometry x="380" y="320" width="120" height="80" as="geometry" />
        </mxCell>
        <mxCell id="9MRlb0sJl3jCcLAnvzpH-9" value="Book ride" style="ellipse;whiteSpace=wrap;html=1;" vertex="1" parent="1">
          <mxGeometry x="380" y="424.5" width="120" height="80" as="geometry" />
        </mxCell>
        <mxCell id="9MRlb0sJl3jCcLAnvzpH-10" value="Share trip details" style="ellipse;whiteSpace=wrap;html=1;" vertex="1" parent="1">
          <mxGeometry x="380" y="520" width="120" height="80" as="geometry" />
        </mxCell>
        <mxCell id="9MRlb0sJl3jCcLAnvzpH-11" value="Rate ride" style="ellipse;whiteSpace=wrap;html=1;" vertex="1" parent="1">
          <mxGeometry x="380" y="620" width="120" height="80" as="geometry" />
        </mxCell>
        <mxCell id="9MRlb0sJl3jCcLAnvzpH-12" value="Update payment information" style="ellipse;whiteSpace=wrap;html=1;" vertex="1" parent="1">
          <mxGeometry x="380" y="720" width="120" height="80" as="geometry" />
        </mxCell>
        <mxCell id="9MRlb0sJl3jCcLAnvzpH-13" value="Leave trip" style="ellipse;whiteSpace=wrap;html=1;" vertex="1" parent="1">
          <mxGeometry x="380" y="820" width="120" height="80" as="geometry" />
        </mxCell>
      </root>
    </mxGraphModel>
  </diagram>
</mxfile>
